<svg id="图层_1" data-name="图层 1" xmlns="http://www.w3.org/2000/svg" viewBox="0 0 361.58 313.17"><defs><style>.cls-1{fill:#258aef;}.cls-2{fill:#0e4daa;}.cls-3{fill:#0c437a;}.cls-4{fill:#fff;}</style></defs><polygon class="cls-1" points="235.85 151.19 183.88 151.19 157.92 106.2 209.87 106.2 235.85 151.19"/><polygon class="cls-1" points="206.77 100.81 154.79 100.81 128.81 55.79 180.75 55.79 206.77 100.81"/><polygon class="cls-1" points="294.03 50.4 242.08 50.4 216.09 5.41 268.07 5.41 294.03 50.4"/><polygon class="cls-1" points="235.85 50.4 183.88 50.4 157.92 5.41 209.87 5.41 235.85 50.4"/><polygon class="cls-1" points="177.65 50.4 125.68 50.4 99.72 5.41 151.67 5.41 177.65 50.4"/><polygon class="cls-1" points="352.23 151.19 300.28 151.19 274.3 106.2 326.27 106.2 352.23 151.19"/><polygon class="cls-1" points="294.03 151.19 242.08 151.19 216.09 106.2 268.07 106.2 294.03 151.19"/><polygon class="cls-2" points="274.29 206.98 326.27 206.98 352.23 161.99 300.28 161.99 274.29 206.98"/><polygon class="cls-2" points="216.09 307.77 268.07 307.77 294.02 262.78 242.08 262.78 216.09 307.77"/><polygon class="cls-2" points="245.18 257.38 297.15 257.38 323.14 212.37 271.19 212.37 245.18 257.38"/><polygon class="cls-2" points="187.01 257.38 238.95 257.38 264.94 212.37 212.99 212.37 187.01 257.38"/><polygon class="cls-2" points="128.81 257.38 180.75 257.38 206.76 212.37 154.79 212.37 128.81 257.38"/><polygon class="cls-3" points="32.21 201.59 6.22 156.59 32.2 111.61 58.18 156.59 32.21 201.59"/><polygon class="cls-3" points="61.3 151.21 35.31 106.2 61.3 61.19 87.28 106.18 61.3 151.21"/><polygon class="cls-3" points="61.29 251.97 35.32 206.99 61.29 161.99 87.28 207 61.29 251.97"/><polygon class="cls-3" points="90.39 100.8 64.41 55.79 90.39 10.81 116.36 55.8 90.39 100.8"/><polygon class="cls-3" points="119.48 252 93.51 207.01 119.49 161.97 145.47 206.98 119.48 252"/><polygon class="cls-3" points="148.58 201.58 122.61 156.59 148.58 111.59 174.56 156.6 148.58 201.58"/><polygon class="cls-3" points="90.39 302.38 64.42 257.39 90.39 212.39 116.38 257.4 90.39 302.38"/><polygon class="cls-4" points="187.01 156.59 180.78 156.59 177.65 151.2 151.69 106.21 148.56 100.82 122.58 55.8 119.48 50.41 93.49 5.42 90.36 0.03 96.59 0.03 99.72 5.42 125.68 50.41 128.81 55.8 154.79 100.82 157.92 106.21 183.88 151.2 187.01 156.59"/><polygon class="cls-4" points="245.18 156.59 238.95 156.59 237.42 153.9 235.85 151.2 209.87 106.21 206.76 100.82 180.75 55.8 177.65 50.41 151.66 5.42 150.1 2.72 148.56 0.03 154.79 0.03 156.36 2.72 157.92 5.42 183.88 50.41 187.01 55.8 212.99 100.82 216.09 106.21 242.08 151.2 243.64 153.9 245.18 156.59"/><polygon class="cls-4" points="245.18 55.8 238.95 55.8 235.85 50.41 209.87 5.42 208.3 2.72 206.76 0.03 212.99 0.03 214.53 2.72 216.09 5.42 242.08 50.41 245.18 55.8"/><polygon class="cls-4" points="303.38 156.59 297.15 156.59 295.59 153.9 294.02 151.2 268.07 106.21 264.94 100.82 271.19 100.82 274.29 106.21 300.28 151.2 301.84 153.9 303.38 156.59"/><polygon class="cls-4" points="361.58 156.59 355.35 156.59 352.23 151.2 326.27 106.21 323.14 100.82 297.15 55.8 294.02 50.41 268.07 5.42 264.94 0.03 271.17 0.03 274.29 5.42 300.25 50.41 303.38 55.8 329.37 100.82 332.47 106.21 358.45 151.2 361.58 156.59"/><polygon class="cls-4" points="274.29 5.42 93.49 5.42 90.36 0.03 271.17 0.03 274.29 5.42"/><polygon class="cls-4" points="303.38 55.8 122.58 55.8 119.48 50.41 300.25 50.41 303.38 55.8"/><polygon class="cls-4" points="332.47 106.21 151.69 106.21 148.56 100.82 329.37 100.82 332.47 106.21"/><polygon class="cls-4" points="361.58 156.59 180.78 156.59 177.65 151.2 358.45 151.2 361.58 156.59"/><polygon class="cls-4" points="264.94 313.16 271.17 313.16 274.29 307.77 300.25 262.78 303.38 257.38 329.37 212.37 332.47 206.98 358.45 161.99 361.58 156.59 355.35 156.59 353.79 159.29 352.23 161.99 326.27 206.98 323.14 212.37 297.15 257.38 294.02 262.78 268.07 307.77 266.5 310.46 264.94 313.16"/><polygon class="cls-4" points="303.37 156.59 301.83 159.28 300.27 161.98 274.28 206.97 271.18 212.36 245.17 257.38 242.07 262.77 216.08 307.76 214.52 310.46 212.98 313.15 206.75 313.15 208.29 310.46 209.85 307.76 235.84 262.77 238.94 257.38 264.93 212.36 268.06 206.97 294.01 161.98 297.14 156.59 303.37 156.59"/><polygon class="cls-4" points="151.66 307.77 157.92 307.77 154.79 313.16 148.56 313.16 150.1 310.46 151.66 307.77"/><polygon class="cls-4" points="209.85 206.97 216.08 206.97 212.98 212.36 187 257.38 183.87 262.77 177.64 262.77 180.74 257.38 206.75 212.36 209.85 206.97"/><polygon class="cls-4" points="245.17 156.59 243.63 159.28 242.07 161.98 235.84 161.98 237.4 159.28 238.94 156.59 245.17 156.59"/><polygon class="cls-4" points="187 156.59 183.87 161.98 157.91 206.97 154.78 212.36 128.79 257.38 125.67 262.77 99.71 307.76 96.58 313.15 90.35 313.15 90.38 313.13 93.48 307.76 93.51 307.74 119.47 262.77 122.57 257.38 122.57 257.35 148.55 212.36 148.58 212.34 151.68 206.97 177.64 161.98 177.67 161.95 180.77 156.59 187 156.59"/><polygon class="cls-4" points="361.57 156.59 358.44 161.98 177.64 161.98 177.67 161.95 180.77 156.59 361.57 156.59"/><polygon class="cls-4" points="332.45 206.97 329.36 212.36 148.55 212.36 148.58 212.34 151.68 206.97 332.45 206.97"/><polygon class="cls-4" points="303.38 257.39 300.25 262.78 119.48 262.78 122.58 257.39 303.38 257.39"/><polygon class="cls-4" points="274.29 307.77 271.16 313.16 90.36 313.16 93.49 307.77 274.29 307.77"/><polygon class="cls-4" points="3.11 161.99 0 156.6 3.11 151.19 29.09 106.22 32.2 100.81 58.19 55.8 61.31 50.42 87.28 5.42 90.38 0.01 93.5 5.41 91.94 8.11 90.39 10.81 64.41 55.79 61.3 61.19 35.31 106.2 32.2 111.61 6.22 156.59 4.67 159.29 3.11 161.99"/><polygon class="cls-4" points="122.6 55.8 119.5 61.22 93.52 106.18 90.39 111.6 64.4 156.59 61.3 161.99 35.32 206.98 33.78 209.7 32.19 212.37 29.09 206.98 30.65 204.31 32.22 201.61 32.22 201.59 58.18 156.59 61.3 151.23 61.3 151.2 87.26 106.18 90.39 100.79 116.38 55.8 117.91 53.1 119.48 50.41 122.6 55.8"/><polygon class="cls-4" points="151.69 106.21 150.13 108.88 148.59 111.6 122.6 156.59 119.48 161.96 119.48 161.99 93.52 207 90.39 212.39 64.43 257.39 61.3 262.78 58.18 257.39 61.3 251.97 87.29 207 90.39 201.59 116.38 156.57 119.5 151.2 145.46 106.21 147.03 103.49 148.59 100.82 151.69 106.21"/><polygon class="cls-4" points="90.4 313.17 87.29 307.78 88.84 305.08 90.39 302.38 116.38 257.4 119.48 252 145.47 206.98 148.58 201.58 174.56 156.6 176.12 153.9 177.67 151.2 180.78 156.59 177.68 161.99 151.69 206.97 148.59 212.38 122.59 257.39 119.48 262.77 93.51 307.77 90.4 313.17"/><polygon class="cls-4" points="180.78 156.59 177.68 161.99 174.58 156.59 148.59 111.6 145.46 106.21 119.5 61.22 116.38 55.8 90.39 10.81 87.29 5.42 90.39 0 119.48 50.41 122.6 55.8 148.59 100.82 151.69 106.21 177.68 151.2 180.78 156.59"/><polygon class="cls-4" points="90.39 100.79 93.52 106.18 90.39 111.6 87.26 106.18 61.3 61.19 58.18 55.8 61.3 50.41 64.4 55.77 90.39 100.79"/><polygon class="cls-4" points="151.69 206.98 148.59 212.37 145.46 206.98 119.48 161.99 119.48 161.96 116.38 156.57 119.5 151.2 122.6 156.59 148.59 201.59 151.69 206.98"/><polygon class="cls-4" points="122.6 257.39 119.48 262.78 116.38 257.41 90.39 212.39 87.29 207 61.3 161.99 58.18 156.59 32.22 111.6 29.09 106.21 32.19 100.82 35.32 106.21 61.3 151.2 61.3 151.23 64.4 156.59 90.39 201.59 93.52 207 119.48 251.99 122.6 257.39"/><polygon class="cls-4" points="90.4 313.17 0 156.6 3.11 151.19 93.51 307.77 90.4 313.17"/></svg>